<svg width="22" height="22" viewBox="0 0 22 22" fill="none" xmlns="http://www.w3.org/2000/svg">
<path d="M10.6625 3.91277L12.5375 2.03777C13.0251 1.55024 13.6038 1.1635 14.2408 0.899653C14.8778 0.635802 15.5605 0.5 16.25 0.5C16.9395 0.5 17.6222 0.635802 18.2592 0.899653C18.8962 1.1635 19.475 1.55024 19.9625 2.03777C20.4501 2.5253 20.8368 3.10409 21.1006 3.74108C21.3645 4.37807 21.5003 5.06079 21.5003 5.75027C21.5003 6.43974 21.3645 7.12247 21.1006 7.75946C20.8368 8.39645 20.4501 8.97523 19.9625 9.46277L16.2125 13.2128C15.725 13.7003 15.1462 14.0871 14.5092 14.351C13.8722 14.6148 13.1895 14.7506 12.5 14.7506C11.8105 14.7506 11.1278 14.6148 10.4908 14.351C9.85382 14.0871 9.27504 13.7003 8.78752 13.2128C8.58891 12.9994 8.48075 12.7173 8.48579 12.4258C8.49083 12.1343 8.60866 11.8562 8.81452 11.6498C9.02093 11.4439 9.2991 11.3261 9.59058 11.321C9.88205 11.316 10.1641 11.4242 10.3775 11.6228C10.6559 11.9021 10.9867 12.1236 11.351 12.2748C11.7152 12.426 12.1057 12.5039 12.5 12.5039C12.8944 12.5039 13.2849 12.426 13.6491 12.2748C14.0133 12.1236 14.3441 11.9021 14.6225 11.6228L18.3725 7.87277C18.9081 7.30435 19.2011 6.54966 19.1895 5.76878C19.1778 4.98791 18.8625 4.24228 18.3102 3.69006C17.758 3.13784 17.0124 2.82246 16.2315 2.81083C15.4506 2.7992 14.6959 3.09223 14.1275 3.62777L12.2525 5.50277C12.0391 5.70138 11.7571 5.80954 11.4656 5.8045C11.1741 5.79947 10.8959 5.68163 10.6895 5.47577C10.4837 5.26936 10.3658 4.99119 10.3608 4.69971C10.3558 4.40824 10.4639 4.12616 10.6625 3.91277ZM3.62752 18.3728C3.90594 18.6521 4.23674 18.8736 4.60096 19.0248C4.96518 19.176 5.35567 19.2539 5.75002 19.2539C6.14438 19.2539 6.53486 19.176 6.89908 19.0248C7.2633 18.8736 7.5941 18.6521 7.87252 18.3728L9.74752 16.4978C9.96091 16.2992 10.243 16.191 10.5345 16.196C10.8259 16.2011 11.1041 16.3189 11.3105 16.5248C11.5164 16.7312 11.6342 17.0093 11.6393 17.3008C11.6443 17.5923 11.5361 17.8744 11.3375 18.0878L9.46252 19.9628C8.97499 20.4503 8.3962 20.837 7.75921 21.1009C7.12222 21.3647 6.4395 21.5005 5.75002 21.5005C4.35757 21.5005 3.02214 20.9474 2.03752 19.9628C1.05291 18.9782 0.499756 17.6427 0.499756 16.2503C0.499756 14.8578 1.05291 13.5224 2.03752 12.5378L5.78752 8.78777C6.27504 8.3002 6.85382 7.91344 7.49081 7.64957C8.1278 7.3857 8.81054 7.24989 9.50002 7.24989C10.1895 7.24989 10.8722 7.3857 11.5092 7.64957C12.1462 7.91344 12.725 8.3002 13.2125 8.78777C13.4111 9.00116 13.5193 9.28324 13.5143 9.57471C13.5092 9.86619 13.3914 10.1444 13.1855 10.3508C12.9791 10.5566 12.7009 10.6745 12.4095 10.6795C12.118 10.6845 11.8359 10.5764 11.6225 10.3778C11.3441 10.0985 11.0133 9.87689 10.6491 9.72569C10.2849 9.57449 9.89438 9.49666 9.50002 9.49666C9.10567 9.49666 8.71518 9.57449 8.35096 9.72569C7.98674 9.87689 7.65594 10.0985 7.37752 10.3778L3.62752 14.1278C3.34824 14.4062 3.12664 14.737 2.97544 15.1012C2.82425 15.4654 2.74642 15.8559 2.74642 16.2503C2.74642 16.6446 2.82425 17.0351 2.97544 17.3993C3.12664 17.7635 3.34824 18.0943 3.62752 18.3728Z" fill="black"/>
</svg>
