<svg width="22" height="22" viewBox="0 0 22 22" fill="none" xmlns="http://www.w3.org/2000/svg">
<mask id="mask0_593_1583" style="mask-type:luminance" maskUnits="userSpaceOnUse" x="0" y="0" width="22" height="22">
<path d="M18.5 2H3.5C3.10218 2 2.72064 2.15804 2.43934 2.43934C2.15804 2.72064 2 3.10218 2 3.5V18.5C2 18.8978 2.15804 19.2794 2.43934 19.5607C2.72064 19.842 3.10218 20 3.5 20H18.5C18.8978 20 19.2794 19.842 19.5607 19.5607C19.842 19.2794 20 18.8978 20 18.5V3.5C20 3.10218 19.842 2.72064 19.5607 2.43934C19.2794 2.15804 18.8978 2 18.5 2Z" fill="white" stroke="white" stroke-width="4" stroke-linejoin="round"/>
<path d="M11 13.3125V11.3125C11.5933 11.3125 12.1734 11.1366 12.6667 10.8069C13.1601 10.4773 13.5446 10.0087 13.7716 9.46055C13.9987 8.91237 14.0581 8.30917 13.9424 7.72723C13.8266 7.14529 13.5409 6.61074 13.1213 6.19118C12.7018 5.77162 12.1672 5.4859 11.5853 5.37015C11.0033 5.25439 10.4001 5.3138 9.85195 5.54086C9.30377 5.76793 8.83524 6.15244 8.50559 6.64579C8.17595 7.13914 8 7.71916 8 8.3125" stroke="black" stroke-width="4" stroke-linecap="round" stroke-linejoin="round"/>
<path fill-rule="evenodd" clip-rule="evenodd" d="M11 17.8125C11.3315 17.8125 11.6495 17.6808 11.8839 17.4464C12.1183 17.212 12.25 16.894 12.25 16.5625C12.25 16.231 12.1183 15.913 11.8839 15.6786C11.6495 15.4442 11.3315 15.3125 11 15.3125C10.6685 15.3125 10.3505 15.4442 10.1161 15.6786C9.8817 15.913 9.75 16.231 9.75 16.5625C9.75 16.894 9.8817 17.212 10.1161 17.4464C10.3505 17.6808 10.6685 17.8125 11 17.8125Z" fill="black"/>
</mask>
<g mask="url(#mask0_593_1583)">
<path d="M-1 -1H23V23H-1V-1Z" fill="black"/>
</g>
</svg>
