<svg width="22" height="24" viewBox="0 0 22 24" fill="none" xmlns="http://www.w3.org/2000/svg">
<path d="M20.815 4.64071C20.7252 4.53808 20.6151 4.4551 20.4917 4.39697C20.3683 4.33884 20.2342 4.3068 20.0978 4.30287C17.9794 4.24748 15.2987 1.98225 13.5264 1.09333C12.4317 0.545942 11.7089 0.185019 11.1661 0.0899417C11.0559 0.0738825 10.9439 0.0741936 10.8338 0.0908648C10.291 0.185942 9.56828 0.546865 8.47443 1.09425C6.70212 1.98225 4.02151 4.24748 1.90304 4.30287C1.76659 4.307 1.63243 4.33913 1.5089 4.39724C1.38536 4.45536 1.27508 4.53823 1.18489 4.64071C0.997943 4.85222 0.901487 5.12866 0.916275 5.41056C1.37135 14.6626 4.68981 20.3884 10.5126 23.7161C10.664 23.8019 10.832 23.8462 10.999 23.8462C11.1661 23.8462 11.3341 23.8019 11.4864 23.7161C17.3092 20.3884 20.6267 14.6626 21.0827 5.41056C21.0984 5.1287 21.0022 4.85206 20.815 4.64071ZM16.1849 8.27948L11.2714 15.5302C11.095 15.7906 10.8181 15.9632 10.544 15.9632C10.2689 15.9632 9.96335 15.8127 9.77043 15.6198L6.30704 12.1555C6.19397 12.042 6.13048 11.8883 6.13048 11.7281C6.13048 11.5679 6.19397 11.4142 6.30704 11.3007L7.16274 10.4432C7.27647 10.3305 7.43006 10.2674 7.59012 10.2674C7.75018 10.2674 7.90377 10.3305 8.01751 10.4432L10.2698 12.6955L14.1827 6.91979C14.2733 6.78762 14.4124 6.69664 14.5698 6.66672C14.7272 6.6368 14.89 6.67037 15.0227 6.7601L16.0243 7.43948C16.1566 7.52987 16.2478 7.66896 16.2779 7.82635C16.3079 7.98374 16.2745 8.14665 16.1849 8.27948Z" fill="black"/>
</svg>
