<svg width="16" height="16" viewBox="0 0 16 16" fill="none" xmlns="http://www.w3.org/2000/svg">
<g clip-path="url(#clip0_613_1773)">
<path d="M2.1605 4.06548C2.57828 3.77348 3.20806 3.82948 3.58317 4.13925L3.15295 3.51392C2.80673 3.02014 2.93073 2.48592 3.42495 2.13925C3.91917 1.79392 5.31961 2.72237 5.31961 2.72237C4.97028 2.2237 5.03561 1.5917 5.53428 1.24192C5.77403 1.0744 6.07047 1.00891 6.35848 1.05983C6.64649 1.11074 6.9025 1.27391 7.07028 1.51348L11.7014 8.0557L11.1112 13.7779L6.18539 11.9815L1.88895 5.61125C1.80517 5.49197 1.74573 5.35733 1.71403 5.21505C1.68234 5.07277 1.679 4.92563 1.70423 4.78206C1.72945 4.63849 1.78273 4.5013 1.86102 4.37834C1.93931 4.25538 2.04108 4.14907 2.1605 4.06548Z" fill="#EF9645"/>
<path d="M1.19755 7.70476C1.19755 7.70476 0.694435 6.97143 1.42821 6.46876C2.1611 5.9661 2.66377 6.69898 2.66377 6.69898L4.99755 10.1025C5.07799 9.96832 5.16599 9.83587 5.26421 9.70521L2.0251 4.9821C2.0251 4.9821 1.52244 4.24921 2.25577 3.74654C2.98866 3.24387 3.49132 3.97676 3.49132 3.97676L6.53799 8.41987C6.65132 8.32743 6.76732 8.23454 6.88688 8.14343L3.35488 2.99187C3.35488 2.99187 2.85221 2.25898 3.58555 1.75632C4.31843 1.25365 4.8211 1.98654 4.8211 1.98654L8.3531 7.13721C8.48288 7.05765 8.61132 6.98876 8.74021 6.91587L5.43888 2.10165C5.43888 2.10165 4.93621 1.36876 5.6691 0.866095C6.40199 0.363429 6.90466 1.09632 6.90466 1.09632L10.3953 6.18698L10.926 6.96121C8.72688 8.46965 8.51755 11.3074 9.77399 13.1399C10.0251 13.5065 10.3918 13.2554 10.3918 13.2554C8.88377 11.0559 9.34421 8.58432 11.5438 7.07632L10.8953 3.83098C10.8953 3.83098 10.6531 2.97587 11.5078 2.73321C12.3629 2.49098 12.6055 3.3461 12.6055 3.3461L13.3544 5.5701C13.6513 6.45187 13.9673 7.33054 14.3855 8.16165C15.5664 10.5083 14.8611 13.4248 12.6344 14.9523C10.2055 16.6177 6.8851 15.9985 5.21932 13.5701L1.19755 7.70476Z" fill="#FFDC5D"/>
<path d="M5.33323 14.2408C3.55545 14.2408 1.75901 12.4444 1.75901 10.6666C1.75901 10.4208 1.57901 10.2222 1.33323 10.2222C1.08745 10.2222 0.870117 10.4208 0.870117 10.6666C0.870117 13.3333 2.66656 15.1297 5.33323 15.1297C5.57901 15.1297 5.77767 14.9124 5.77767 14.6666C5.77767 14.4208 5.57901 14.2408 5.33323 14.2408Z" fill="#5DADEC"/>
<path d="M3.11111 15.1109C1.77778 15.1109 0.888889 14.222 0.888889 12.8887C0.888889 12.7708 0.842064 12.6578 0.758714 12.5744C0.675365 12.4911 0.562318 12.4442 0.444444 12.4442C0.32657 12.4442 0.213524 12.4911 0.130175 12.5744C0.0468253 12.6578 0 12.7708 0 12.8887C0 14.6664 1.33333 15.9998 3.11111 15.9998C3.22898 15.9998 3.34203 15.953 3.42538 15.8696C3.50873 15.7863 3.55556 15.6732 3.55556 15.5553C3.55556 15.4375 3.50873 15.3244 3.42538 15.2411C3.34203 15.1577 3.22898 15.1109 3.11111 15.1109ZM10.6667 0.888672C10.5488 0.888672 10.4357 0.935497 10.3524 1.01885C10.269 1.1022 10.2222 1.21524 10.2222 1.33312C10.2222 1.45099 10.269 1.56404 10.3524 1.64739C10.4357 1.73074 10.5488 1.77756 10.6667 1.77756C12.4444 1.77756 14.2222 3.37267 14.2222 5.33312C14.2222 5.45099 14.269 5.56404 14.3524 5.64739C14.4357 5.73074 14.5488 5.77756 14.6667 5.77756C14.7845 5.77756 14.8976 5.73074 14.9809 5.64739C15.0643 5.56404 15.1111 5.45099 15.1111 5.33312C15.1111 2.88245 13.3333 0.888672 10.6667 0.888672Z" fill="#5DADEC"/>
<path d="M12.8888 0.0185547C12.6434 0.0185547 12.4443 0.198999 12.4443 0.444332C12.4443 0.689666 12.6434 0.907444 12.8888 0.907444C14.2221 0.907444 15.0923 1.89633 15.0923 3.111C15.0923 3.35633 15.3097 3.55544 15.5554 3.55544C15.8012 3.55544 15.9812 3.35633 15.9812 3.111C15.9812 1.40567 14.6666 0.0185547 12.8888 0.0185547Z" fill="#5DADEC"/>
</g>
<defs>
<clipPath id="clip0_613_1773">
<rect width="16" height="16" fill="white"/>
</clipPath>
</defs>
</svg>
