<svg width="21" height="22" viewBox="0 0 21 22" fill="none" xmlns="http://www.w3.org/2000/svg">
<path d="M4 3C4 2.60218 4.15804 2.22064 4.43934 1.93934C4.72064 1.65804 5.10218 1.5 5.5 1.5C5.89782 1.5 6.27936 1.65804 6.56066 1.93934C6.84196 2.22064 7 2.60218 7 3C7 3.39782 6.84196 3.77936 6.56066 4.06066C6.27936 4.34196 5.89782 4.5 5.5 4.5C5.10218 4.5 4.72064 4.34196 4.43934 4.06066C4.15804 3.77936 4 3.39782 4 3ZM5.5 0C5.10603 -5.87054e-09 4.71593 0.0775973 4.35195 0.228361C3.98797 0.379125 3.65726 0.600104 3.37868 0.87868C3.1001 1.15726 2.87913 1.48797 2.72836 1.85195C2.5776 2.21593 2.5 2.60603 2.5 3C2.5 3.39397 2.5776 3.78407 2.72836 4.14805C2.87913 4.51203 3.1001 4.84274 3.37868 5.12132C3.65726 5.3999 3.98797 5.62087 4.35195 5.77164C4.71593 5.9224 5.10603 6 5.5 6C6.29565 6 7.05871 5.68393 7.62132 5.12132C8.18393 4.55871 8.5 3.79565 8.5 3C8.5 2.20435 8.18393 1.44129 7.62132 0.87868C7.05871 0.31607 6.29565 1.18561e-08 5.5 0ZM0 8.768C0 7.79 0.791 7 1.768 7H6.535C6.26814 7.46116 6.09675 7.97127 6.031 8.5H1.768C1.69692 8.5 1.62875 8.52824 1.5785 8.5785C1.52824 8.62875 1.5 8.69692 1.5 8.768V9.125C1.5 9.267 1.503 10.125 1.987 10.93C2.376 11.578 3.134 12.29 4.737 12.461C4.257 12.781 3.881 13.247 3.675 13.796C2.177 13.43 1.248 12.613 0.701 11.703C0 10.536 0 9.336 0 9.127V8.768ZM13.97 8.5C13.9039 7.9712 13.7322 7.46108 13.465 7H18.232C19.21 7 20 7.791 20 8.768V9.128C20 9.315 20 10.313 19.484 11.364C19.0858 11.0542 18.6529 10.7917 18.194 10.582C18.3928 10.1218 18.4969 9.62629 18.5 9.125V8.768C18.5 8.73281 18.4931 8.69796 18.4796 8.66544C18.4661 8.63293 18.4464 8.60338 18.4215 8.5785C18.3966 8.55361 18.3671 8.53387 18.3346 8.5204C18.302 8.50693 18.2672 8.5 18.232 8.5H13.97ZM12.419 10.775C12.6545 10.4576 12.8249 10.0967 12.9205 9.71318C13.0161 9.32967 13.0349 8.93104 12.976 8.54021C12.917 8.14939 12.7814 7.77406 12.5769 7.4358C12.3725 7.09755 12.1032 6.80303 11.7845 6.56917C11.4659 6.33531 11.1042 6.16672 10.7202 6.07309C10.3362 5.97946 9.93748 5.96263 9.54696 6.02358C9.15644 6.08452 8.78181 6.22203 8.44459 6.42821C8.10738 6.63439 7.81424 6.90517 7.582 7.225C7.11606 7.86668 6.92313 8.66675 7.0454 9.45027C7.16768 10.2338 7.5952 10.937 8.2345 11.4062C8.87381 11.8754 9.67288 12.0724 10.457 11.9541C11.2411 11.8359 11.9466 11.4119 12.419 10.775ZM10.022 13H6.268C5.291 13 4.5 13.791 4.5 14.768V15.128C4.5 15.335 4.5 16.536 5.2 17.703C5.943 18.937 7.387 20 10 20H10.022C9.71632 19.523 9.47459 19.0079 9.303 18.468C7.654 18.308 6.881 17.586 6.487 16.93C6.003 16.125 6 15.267 6 15.125V14.768C6 14.62 6.12 14.5 6.268 14.5H9.313C9.48399 13.9716 9.72228 13.4675 10.022 13ZM14.5 1.5C14.1022 1.5 13.7206 1.65804 13.4393 1.93934C13.158 2.22064 13 2.60218 13 3C13 3.39782 13.158 3.77936 13.4393 4.06066C13.7206 4.34196 14.1022 4.5 14.5 4.5C14.8978 4.5 15.2794 4.34196 15.5607 4.06066C15.842 3.77936 16 3.39782 16 3C16 2.60218 15.842 2.22064 15.5607 1.93934C15.2794 1.65804 14.8978 1.5 14.5 1.5ZM11.5 3C11.5 2.20435 11.8161 1.44129 12.3787 0.87868C12.9413 0.31607 13.7044 0 14.5 0C15.2956 0 16.0587 0.31607 16.6213 0.87868C17.1839 1.44129 17.5 2.20435 17.5 3C17.5 3.79565 17.1839 4.55871 16.6213 5.12132C16.0587 5.68393 15.2956 6 14.5 6C13.7044 6 12.9413 5.68393 12.3787 5.12132C11.8161 4.55871 11.5 3.79565 11.5 3ZM8.5 9C8.5 8.60218 8.65804 8.22064 8.93934 7.93934C9.22064 7.65804 9.60218 7.5 10 7.5C10.3978 7.5 10.7794 7.65804 11.0607 7.93934C11.342 8.22064 11.5 8.60218 11.5 9C11.5 9.39782 11.342 9.77936 11.0607 10.0607C10.7794 10.342 10.3978 10.5 10 10.5C9.60218 10.5 9.22064 10.342 8.93934 10.0607C8.65804 9.77936 8.5 9.39782 8.5 9ZM15.5 11C16.9587 11 18.3576 11.5795 19.3891 12.6109C20.4205 13.6424 21 15.0413 21 16.5C21 17.9587 20.4205 19.3576 19.3891 20.3891C18.3576 21.4205 16.9587 22 15.5 22C14.0413 22 12.6424 21.4205 11.6109 20.3891C10.5795 19.3576 10 17.9587 10 16.5C10 15.0413 10.5795 13.6424 11.6109 12.6109C12.6424 11.5795 14.0413 11 15.5 11ZM16.001 19.503V17H18.497C18.6296 17 18.7568 16.9473 18.8506 16.8536C18.9443 16.7598 18.997 16.6326 18.997 16.5C18.997 16.3674 18.9443 16.2402 18.8506 16.1464C18.7568 16.0527 18.6296 16 18.497 16H16V13.5C16 13.3674 15.9473 13.2402 15.8536 13.1464C15.7598 13.0527 15.6326 13 15.5 13C15.3674 13 15.2402 13.0527 15.1464 13.1464C15.0527 13.2402 15 13.3674 15 13.5V16H12.496C12.3634 16 12.2362 16.0527 12.1424 16.1464C12.0487 16.2402 11.996 16.3674 11.996 16.5C11.996 16.6326 12.0487 16.7598 12.1424 16.8536C12.2362 16.9473 12.3634 17 12.496 17H15V19.503C15 19.6356 15.0527 19.7628 15.1464 19.8566C15.2402 19.9503 15.3674 20.003 15.5 20.003C15.6326 20.003 15.7598 19.9503 15.8536 19.8566C15.9473 19.7628 16.001 19.6356 16.001 19.503Z" fill="black"/>
</svg>
